<?xml version="1.0" encoding="UTF-8" standalone="no"?>
<!-- Created with Inkscape (http://www.inkscape.org/) -->

<svg
   xmlns:xhtml="http://www.w3.org/1999/xhtml"
   xmlns:dc="http://purl.org/dc/elements/1.1/"
   xmlns:cc="http://creativecommons.org/ns#"
   xmlns:rdf="http://www.w3.org/1999/02/22-rdf-syntax-ns#"
   xmlns:svg="http://www.w3.org/2000/svg"
   xmlns="http://www.w3.org/2000/svg"
   xmlns:sodipodi="http://sodipodi.sourceforge.net/DTD/sodipodi-0.dtd"
   xmlns:inkscape="http://www.inkscape.org/namespaces/inkscape"
   width="300"
   height="159"
   viewBox="0 0 300 159"
   id="svg3995"
   version="1.1"
   preserveAspectRatio="xMinYMin meet"
   inkscape:version="0.48.5 r10040"
   sodipodi:docname="grid.svg">
  <defs
     id="defs3997">
    <xhtml:link
       href="/static/css/main.css"
       type="text/css"
       rel="stylesheet" />
  </defs>
  <sodipodi:namedview
     id="base"
     pagecolor="#ffffff"
     bordercolor="#666666"
     borderopacity="1.0"
     inkscape:pageopacity="0.0"
     inkscape:pageshadow="2"
     inkscape:zoom="2.8"
     inkscape:cx="247.05188"
     inkscape:cy="94.489338"
     inkscape:document-units="px"
     showgrid="false"
     inkscape:window-width="1920"
     inkscape:window-height="978"
     inkscape:window-x="0"
     inkscape:window-y="31"
     inkscape:window-maximized="1"
     inkscape:current-layer="svg3995"
     fit-margin-top="0"
     fit-margin-left="0"
     fit-margin-right="0"
     fit-margin-bottom="0" />
  <metadata
     id="metadata4000">
    <rdf:RDF>
      <cc:Work
         rdf:about="">
        <dc:format>image/svg+xml</dc:format>
        <dc:type
           rdf:resource="http://purl.org/dc/dcmitype/StillImage" />
        <dc:title />
      </cc:Work>
    </rdf:RDF>
  </metadata>
  <path
     style="fill:none;stroke:#cacaca;stroke-width:2.5999999;stroke-linecap:butt;stroke-linejoin:miter;stroke-miterlimit:4;stroke-opacity:1;stroke-dasharray:none"
     d="m 102.79947,81.361879 c 17.05202,1.75274 23.24742,-5.43045 33.60414,-5.41293 12.30333,0.0208 32.29456,5.60863 32.29456,5.60863"
     id="path3839-3-9"
     class="line" />
  <path
     style="fill:none;stroke:#cacaca;stroke-width:2.4000001;stroke-linecap:butt;stroke-linejoin:miter;stroke-miterlimit:4;stroke-opacity:1;stroke-dasharray:none"
     d="m 11.087038,62.729361 11.66314,7.402832 -4.90419,2.694537 -11.3265904,6.223226"
     id="path3927-7-2-5"
     class="line" />
  <path
     style="fill:none;stroke:#cacaca;stroke-width:2.5999999;stroke-linecap:butt;stroke-linejoin:miter;stroke-miterlimit:4;stroke-opacity:1;stroke-dasharray:none;stroke-dashoffset:0"
     d="m 37.623668,70.011491 -16.77675,0.1963"
     id="path4743-9-4"
     class="line" />
  <path
     style="fill:none;stroke:#cacaca;stroke-width:2.4000001;stroke-linecap:butt;stroke-linejoin:miter;stroke-miterlimit:4;stroke-opacity:1;stroke-dasharray:none"
     d="m 184.77213,49.158019 -10.54865,24.06854 -3.34015,-9.73458"
     id="path3927-7-2"
     class="line" />
  <path
     style="fill:none;stroke:#cacaca;stroke-width:2.4000001;stroke-linecap:butt;stroke-linejoin:miter;stroke-miterlimit:4;stroke-opacity:1;stroke-dasharray:none"
     d="m 280.62026,55.385364 0.25254,-23.612325 13.88959,-7.07107"
     id="path3925"
     class="line" />
  <path
     style="fill:none;stroke:#cacaca;stroke-width:2.4000001;stroke-linecap:butt;stroke-linejoin:miter;stroke-miterlimit:4;stroke-opacity:1;stroke-dasharray:none"
     d="m 274.3068,8.1607394 6.31346,23.3597596 -18.30902,-1.01015"
     id="path3927"
     class="line" />
  <path
     style="fill:none;stroke:#cacaca;stroke-width:2.5999999;stroke-linecap:butt;stroke-linejoin:miter;stroke-miterlimit:4;stroke-opacity:1;stroke-dasharray:none"
     d="m 180.82997,78.826614 c 63.92858,-2.14285 19.79553,-17.20065 88.57143,-21.78571 32.14287,-2.14286 63.57144,-1.78571 63.57144,-1.78571"
     id="path3839"
     class="line" />
  <path
     transform="matrix(0.22023077,0,0,0.22023077,185.56239,-54.464221)"
     sodipodi:type="arc"
     style="fill:none;stroke:#60aa00;stroke-width:10.57239151;stroke-miterlimit:4;stroke-opacity:1;stroke-dasharray:none"
     id="cs21"
     sodipodi:cx="331.33929"
     sodipodi:cy="379.41574"
     sodipodi:rx="17.410715"
     sodipodi:ry="16.696428"
     d="m 348.75001,379.41574 a 17.410715,16.696428 0 1 1 -34.82143,0 17.410715,16.696428 0 1 1 34.82143,0 z"
     inkscape:export-filename="C:\Users\ca508\drawings.png"
     inkscape:export-xdpi="208.85732"
     inkscape:export-ydpi="208.85732"
     class="group3" />
  <path
     transform="matrix(0.22023077,0,0,0.22023077,200.30363,-78.717771)"
     sodipodi:type="arc"
     style="opacity:0.98999999;fill:none;stroke:#60aa00;stroke-width:10.57239151;stroke-miterlimit:4;stroke-opacity:1;stroke-dasharray:none"
     id="cs20"
     sodipodi:cx="331.33929"
     sodipodi:cy="379.41574"
     sodipodi:rx="17.410715"
     sodipodi:ry="16.696428"
     d="m 348.75001,379.41574 a 17.410715,16.696428 0 1 1 -34.82143,0 17.410715,16.696428 0 1 1 34.82143,0 z"
     inkscape:export-filename="C:\Users\ca508\drawings.png"
     inkscape:export-xdpi="208.85732"
     inkscape:export-ydpi="208.85732"
     class="group3" />
  <path
     transform="matrix(0.22023077,0,0,0.22023077,225.99633,-60.842251)"
     sodipodi:type="arc"
     style="fill:none;stroke:#60aa00;stroke-width:10.57239151;stroke-miterlimit:4;stroke-opacity:1;stroke-dasharray:none"
     id="cs19"
     sodipodi:cx="331.33929"
     sodipodi:cy="379.41574"
     sodipodi:rx="17.410715"
     sodipodi:ry="16.696428"
     d="m 348.75001,379.41574 a 17.410715,16.696428 0 1 1 -34.82143,0 17.410715,16.696428 0 1 1 34.82143,0 z"
     inkscape:export-filename="C:\Users\ca508\drawings.png"
     inkscape:export-xdpi="208.85732"
     inkscape:export-ydpi="208.85732"
     class="group1" />
  <path
     style="fill:none;stroke:#cacaca;stroke-width:2.4000001;stroke-linecap:butt;stroke-linejoin:miter;stroke-miterlimit:4;stroke-opacity:1;stroke-dasharray:none"
     d="m 317.95935,101.16452 14.05751,-46.065926 12.22813,9.66403"
     id="path3925-7"
     class="line" />
  <path
     style="fill:none;stroke:#cacaca;stroke-width:2.4000001;stroke-linecap:butt;stroke-linejoin:miter;stroke-miterlimit:4;stroke-opacity:1;stroke-dasharray:none"
     d="M 350.72513,39.266509 332.14077,54.763624 325.40776,37.707609"
     id="path3927-7"
     class="line" />
  <path
     transform="matrix(0.09202719,0.20008146,-0.20008146,0.09202719,370.53704,-67.527421)"
     sodipodi:type="arc"
     style="fill:none;stroke:#60aa00;stroke-width:10.57239151;stroke-miterlimit:4;stroke-opacity:1;stroke-dasharray:none"
     id="cs18"
     sodipodi:cx="331.33929"
     sodipodi:cy="379.41574"
     sodipodi:rx="17.410715"
     sodipodi:ry="16.696428"
     d="m 348.75001,379.41574 a 17.410715,16.696428 0 1 1 -34.82143,0 17.410715,16.696428 0 1 1 34.82143,0 z"
     inkscape:export-filename="C:\Users\ca508\drawings.png"
     inkscape:export-xdpi="208.85732"
     inkscape:export-ydpi="208.85732"
     class="group1" />
  <path
     transform="matrix(0.09202719,0.20008146,-0.20008146,0.09202719,398.73147,-64.269631)"
     sodipodi:type="arc"
     style="fill:none;stroke:#60aa00;stroke-width:10.57239151;stroke-miterlimit:4;stroke-opacity:1;stroke-dasharray:none"
     id="cs17"
     sodipodi:cx="331.33929"
     sodipodi:cy="379.41574"
     sodipodi:rx="17.410715"
     sodipodi:ry="16.696428"
     d="m 348.75001,379.41574 a 17.410715,16.696428 0 1 1 -34.82143,0 17.410715,16.696428 0 1 1 34.82143,0 z"
     inkscape:export-filename="C:\Users\ca508\drawings.png"
     inkscape:export-xdpi="208.85732"
     inkscape:export-ydpi="208.85732"
     class="group1" />
  <path
     transform="matrix(0.09202719,0.20008146,-0.20008146,0.09202719,393.22753,-33.458031)"
     sodipodi:type="arc"
     style="fill:none;stroke:#60aa00;stroke-width:10.57239151;stroke-miterlimit:4;stroke-opacity:1;stroke-dasharray:none"
     id="cs16"
     sodipodi:cx="331.33929"
     sodipodi:cy="379.41574"
     sodipodi:rx="17.410715"
     sodipodi:ry="16.696428"
     d="m 348.75001,379.41574 a 17.410715,16.696428 0 1 1 -34.82143,0 17.410715,16.696428 0 1 1 34.82143,0 z"
     inkscape:export-filename="C:\Users\ca508\drawings.png"
     inkscape:export-xdpi="208.85732"
     inkscape:export-ydpi="208.85732"
     class="group2" />
  <path
     transform="matrix(0.09202719,0.20008146,-0.20008146,0.09202719,214.8902,-42.178321)"
     sodipodi:type="arc"
     style="fill:none;stroke:#60aa00;stroke-width:10.57239151;stroke-miterlimit:4;stroke-opacity:1;stroke-dasharray:none"
     id="cs8"
     sodipodi:cx="331.33929"
     sodipodi:cy="379.41574"
     sodipodi:rx="17.410715"
     sodipodi:ry="16.696428"
     d="m 348.75001,379.41574 a 17.410715,16.696428 0 1 1 -34.82143,0 17.410715,16.696428 0 1 1 34.82143,0 z"
     inkscape:export-filename="C:\Users\ca508\drawings.png"
     inkscape:export-xdpi="208.85732"
     inkscape:export-ydpi="208.85732"
     class="group1" />
  <path
     transform="matrix(0.09202719,0.20008146,-0.20008146,0.09202719,231.87123,-55.766501)"
     sodipodi:type="arc"
     style="fill:none;stroke:#60aa00;stroke-width:10.57239151;stroke-miterlimit:4;stroke-opacity:1;stroke-dasharray:none"
     id="cs7"
     sodipodi:cx="331.33929"
     sodipodi:cy="379.41574"
     sodipodi:rx="17.410715"
     sodipodi:ry="16.696428"
     d="m 348.75001,379.41574 a 17.410715,16.696428 0 1 1 -34.82143,0 17.410715,16.696428 0 1 1 34.82143,0 z"
     inkscape:export-filename="C:\Users\ca508\drawings.png"
     inkscape:export-xdpi="208.85732"
     inkscape:export-ydpi="208.85732"
     class="group3" />
  <path
     style="fill:none;stroke:#cacaca;stroke-width:2.5999999;stroke-linecap:butt;stroke-linejoin:miter;stroke-miterlimit:4;stroke-opacity:1;stroke-dasharray:none"
     d="m 180.58429,83.195994 c 37.8528,6.147281 16.30769,26.650106 46.98304,40.680826 29.30555,13.40419 37.27503,11.17504 37.27503,11.17504"
     id="path3839-3"
     class="line" />
  <path
     transform="matrix(0.20008146,-0.09202719,0.09202719,0.20008146,215.33284,60.547652)"
     sodipodi:type="arc"
     style="fill:none;stroke:#60aa00;stroke-width:10.57239151;stroke-miterlimit:4;stroke-opacity:1;stroke-dasharray:none"
     id="customer1"
     sodipodi:cx="331.33929"
     sodipodi:cy="379.41574"
     sodipodi:rx="17.410715"
     sodipodi:ry="16.696428"
     d="m 348.75001,379.41574 a 17.410715,16.696428 0 1 1 -34.82143,0 17.410715,16.696428 0 1 1 34.82143,0 z"
     inkscape:export-filename="C:\Users\ca508\drawings.png"
     inkscape:export-xdpi="208.85732"
     inkscape:export-ydpi="208.85732"
     inkscape:label="#customer1"
     class="group2" />
  <path
     transform="matrix(0.09202719,0.20008146,-0.20008146,0.09202719,314.56373,33.913169)"
     sodipodi:type="arc"
     style="fill:none;stroke:#60aa00;stroke-width:10.57239151;stroke-miterlimit:4;stroke-opacity:1;stroke-dasharray:none"
     id="cs15"
     sodipodi:cx="331.33929"
     sodipodi:cy="379.41574"
     sodipodi:rx="17.410715"
     sodipodi:ry="16.696428"
     d="m 348.75001,379.41574 a 17.410715,16.696428 0 1 1 -34.82143,0 17.410715,16.696428 0 1 1 34.82143,0 z"
     inkscape:export-filename="C:\Users\ca508\drawings.png"
     inkscape:export-xdpi="208.85732"
     inkscape:export-ydpi="208.85732"
     class="group2" />
  <path
     style="fill:none;stroke:#cacaca;stroke-width:2.4000001;stroke-linecap:butt;stroke-linejoin:miter;stroke-miterlimit:4;stroke-opacity:1;stroke-dasharray:none"
     d="m 220.6829,150.7673 10.54864,-24.06855 3.34015,9.73459"
     id="path3927-7-2-8"
     class="line" />
  <path
     transform="matrix(0.09202719,0.20008146,-0.20008146,0.09202719,281.17088,38.466729)"
     sodipodi:type="arc"
     style="fill:none;stroke:#60aa00;stroke-width:10.57239151;stroke-miterlimit:4;stroke-opacity:1;stroke-dasharray:none"
     id="cs13"
     sodipodi:cx="331.33929"
     sodipodi:cy="379.41574"
     sodipodi:rx="17.410715"
     sodipodi:ry="16.696428"
     d="m 348.75001,379.41574 a 17.410715,16.696428 0 1 1 -34.82143,0 17.410715,16.696428 0 1 1 34.82143,0 z"
     inkscape:export-filename="C:\Users\ca508\drawings.png"
     inkscape:export-xdpi="208.85732"
     inkscape:export-ydpi="208.85732"
     class="group2" />
  <path
     transform="matrix(0.09202719,0.20008146,-0.20008146,0.09202719,264.7423,52.395304)"
     sodipodi:type="arc"
     style="fill:none;stroke:#60aa00;stroke-width:10.57239151;stroke-miterlimit:4;stroke-opacity:1;stroke-dasharray:none"
     id="cs14"
     sodipodi:cx="331.33929"
     sodipodi:cy="379.41574"
     sodipodi:rx="17.410715"
     sodipodi:ry="16.696428"
     d="m 348.75001,379.41574 a 17.410715,16.696428 0 1 1 -34.82143,0 17.410715,16.696428 0 1 1 34.82143,0 z"
     inkscape:export-filename="C:\Users\ca508\drawings.png"
     inkscape:export-xdpi="208.85732"
     inkscape:export-ydpi="208.85732"
     class="group3" />
  <rect
     transform="scale(-1,1)"
     ry="1.5355961"
     inkscape:export-ydpi="208.85732"
     inkscape:export-xdpi="208.85732"
     inkscape:export-filename="C:\Users\ca508\drawings.png"
     y="75.715118"
     x="-179.9906"
     height="10.749172"
     width="10.749172"
     id="bts"
     style="fill:none;stroke:#fab000;stroke-width:2.4749999;stroke-linecap:round;stroke-linejoin:round;stroke-miterlimit:4;stroke-opacity:1;stroke-dasharray:none" />
  <path
     transform="matrix(0.09202719,0.20008146,-0.20008146,0.09202719,148.55905,-1.7065207)"
     sodipodi:type="arc"
     style="fill:none;stroke:#60aa00;stroke-width:10.57239151;stroke-miterlimit:4;stroke-opacity:1;stroke-dasharray:none"
     id="customer3"
     sodipodi:cx="331.33929"
     sodipodi:cy="379.41574"
     sodipodi:rx="17.410715"
     sodipodi:ry="16.696428"
     d="m 348.75001,379.41574 a 17.410715,16.696428 0 1 1 -34.82143,0 17.410715,16.696428 0 1 1 34.82143,0 z"
     inkscape:export-filename="C:\Users\ca508\drawings.png"
     inkscape:export-xdpi="208.85732"
     inkscape:export-ydpi="208.85732"
     class="group2" />
  <path
     style="fill:none;stroke:#cacaca;stroke-width:2.4000001;stroke-linecap:butt;stroke-linejoin:miter;stroke-miterlimit:4;stroke-opacity:1;stroke-dasharray:none"
     d="m 103.14065,94.722423 -0.52871,-13.163104 18.74082,-33.06693"
     id="path3925-9"
     class="line" />
  <path
     transform="matrix(0.09202719,0.20008146,-0.20008146,0.09202719,168.65319,-56.549071)"
     sodipodi:type="arc"
     style="fill:none;stroke:#60aa00;stroke-width:10.57239151;stroke-miterlimit:4;stroke-opacity:1;stroke-dasharray:none"
     id="cs6"
     sodipodi:cx="331.33929"
     sodipodi:cy="379.41574"
     sodipodi:rx="17.410715"
     sodipodi:ry="16.696428"
     d="m 348.75001,379.41574 a 17.410715,16.696428 0 1 1 -34.82143,0 17.410715,16.696428 0 1 1 34.82143,0 z"
     inkscape:export-filename="C:\Users\ca508\drawings.png"
     inkscape:export-xdpi="208.85732"
     inkscape:export-ydpi="208.85732"
     class="group2" />
  <path
     style="fill:none;stroke:#cacaca;stroke-width:2.5999999;stroke-linecap:butt;stroke-linejoin:miter;stroke-miterlimit:4;stroke-opacity:1;stroke-dasharray:2.6, 2.6;stroke-dashoffset:0"
     d="M 100.58591,80.041384 43.685908,69.545266"
     id="wireless"
     class="line" />
  <path
     transform="matrix(0.09202719,0.20008146,-0.20008146,0.09202719,54.137608,-41.082991)"
     sodipodi:type="arc"
     style="fill:none;stroke:#60aa00;stroke-width:10.57239151;stroke-miterlimit:4;stroke-opacity:1;stroke-dasharray:none"
     id="cs2"
     sodipodi:cx="331.33929"
     sodipodi:cy="379.41574"
     sodipodi:rx="17.410715"
     sodipodi:ry="16.696428"
     d="m 348.75001,379.41574 a 17.410715,16.696428 0 1 1 -34.82143,0 17.410715,16.696428 0 1 1 34.82143,0 z"
     inkscape:export-filename="C:\Users\ca508\drawings.png"
     inkscape:export-xdpi="208.85732"
     inkscape:export-ydpi="208.85732"
     class="group2" />
  <path
     style="fill:none;stroke:#cacaca;stroke-width:2.4000001;stroke-linecap:butt;stroke-linejoin:miter;stroke-miterlimit:4;stroke-opacity:1;stroke-dasharray:none"
     d="M 80.829708,92.360385 C 105.31953,79.146589 100.97819,81.511259 102.7707,80.380829"
     id="path3925-9-6"
     class="line" />
  <path
     transform="matrix(0.09202719,0.20008146,-0.20008146,0.09202719,123.19485,-7.1349007)"
     sodipodi:type="arc"
     style="fill:none;stroke:#60aa00;stroke-width:10.57239151;stroke-miterlimit:4;stroke-opacity:1;stroke-dasharray:none"
     id="cs4"
     sodipodi:cx="331.33929"
     sodipodi:cy="379.41574"
     sodipodi:rx="17.410715"
     sodipodi:ry="16.696428"
     d="m 348.75001,379.41574 a 17.410715,16.696428 0 1 1 -34.82143,0 17.410715,16.696428 0 1 1 34.82143,0 z"
     inkscape:export-filename="C:\Users\ca508\drawings.png"
     inkscape:export-xdpi="208.85732"
     inkscape:export-ydpi="208.85732"
     class="group2" />
  <path
     style="fill:none;stroke:#cacaca;stroke-width:2.5999999;stroke-linecap:butt;stroke-linejoin:miter;stroke-miterlimit:4;stroke-opacity:1;stroke-dasharray:none"
     d="m 212.05363,75.231564 c 8.18879,4.85812 7.78226,8.92328 16.12178,14.226091 6.03985,3.840527 19.51933,3.870447 19.51933,3.870447"
     id="path3839-3-3"
     class="line" />
  <path
     style="fill:none;stroke:#cacaca;stroke-width:2.4000001;stroke-linecap:butt;stroke-linejoin:miter;stroke-miterlimit:4;stroke-opacity:1;stroke-dasharray:none"
     d="m 256.3159,89.078715 -8.59012,4.097277 -2.26806,-10.217518"
     id="path3927-4"
     class="line" />
  <path
     style="fill:none;stroke:#cacaca;stroke-width:2.4000001;stroke-linecap:butt;stroke-linejoin:miter;stroke-miterlimit:4;stroke-opacity:1;stroke-dasharray:none"
     d="m 242.80826,102.76527 4.42401,-8.426507 7.93664,6.822887"
     id="path3927-4-2"
     class="line" />
  <path
     transform="matrix(0.09202719,0.20008146,-0.20008146,0.09202719,304.99878,-13.285781)"
     sodipodi:type="arc"
     style="fill:none;stroke:#60aa00;stroke-width:10.57239151;stroke-miterlimit:4;stroke-opacity:1;stroke-dasharray:none"
     id="cs9"
     sodipodi:cx="331.33929"
     sodipodi:cy="379.41574"
     sodipodi:rx="17.410715"
     sodipodi:ry="16.696428"
     d="m 348.75001,379.41574 a 17.410715,16.696428 0 1 1 -34.82143,0 17.410715,16.696428 0 1 1 34.82143,0 z"
     inkscape:export-filename="C:\Users\ca508\drawings.png"
     inkscape:export-xdpi="208.85732"
     inkscape:export-ydpi="208.85732"
     class="group2" />
  <path
     transform="matrix(0.09202719,0.20008146,-0.20008146,0.09202719,303.43627,2.1439093)"
     sodipodi:type="arc"
     style="fill:none;stroke:#60aa00;stroke-width:10.57239151;stroke-miterlimit:4;stroke-opacity:1;stroke-dasharray:none"
     id="cs12"
     sodipodi:cx="331.33929"
     sodipodi:cy="379.41574"
     sodipodi:rx="17.410715"
     sodipodi:ry="16.696428"
     d="m 348.75001,379.41574 a 17.410715,16.696428 0 1 1 -34.82143,0 17.410715,16.696428 0 1 1 34.82143,0 z"
     inkscape:export-filename="C:\Users\ca508\drawings.png"
     inkscape:export-xdpi="208.85732"
     inkscape:export-ydpi="208.85732"
     class="group1" />
  <path
     transform="matrix(0.09202719,0.20008146,-0.20008146,0.09202719,286.83471,4.8782894)"
     sodipodi:type="arc"
     style="fill:none;stroke:#60aa00;stroke-width:10.57239151;stroke-miterlimit:4;stroke-opacity:1;stroke-dasharray:none"
     id="cs11"
     sodipodi:cx="331.33929"
     sodipodi:cy="379.41574"
     sodipodi:rx="17.410715"
     sodipodi:ry="16.696428"
     d="m 348.75001,379.41574 a 17.410715,16.696428 0 1 1 -34.82143,0 17.410715,16.696428 0 1 1 34.82143,0 z"
     inkscape:export-filename="C:\Users\ca508\drawings.png"
     inkscape:export-xdpi="208.85732"
     inkscape:export-ydpi="208.85732"
     class="group1" />
  <path
     transform="matrix(0.09202719,0.20008146,-0.20008146,0.09202719,289.7644,-20.707651)"
     sodipodi:type="arc"
     style="fill:none;stroke:#60aa00;stroke-width:10.57239151;stroke-miterlimit:4;stroke-opacity:1;stroke-dasharray:none"
     id="cs10"
     sodipodi:cx="331.33929"
     sodipodi:cy="379.41574"
     sodipodi:rx="17.410715"
     sodipodi:ry="16.696428"
     d="m 348.75001,379.41574 a 17.410715,16.696428 0 1 1 -34.82143,0 17.410715,16.696428 0 1 1 34.82143,0 z"
     inkscape:export-filename="C:\Users\ca508\drawings.png"
     inkscape:export-xdpi="208.85732"
     inkscape:export-ydpi="208.85732"
     class="group3" />
  <path
     style="fill:none;stroke:#cacaca;stroke-width:2.5999999;stroke-linecap:butt;stroke-linejoin:miter;stroke-miterlimit:4;stroke-opacity:1;stroke-dasharray:none;stroke-dashoffset:0"
     d="M 102.81356,81.179749 91.212584,61.844799"
     id="path4743-9"
     class="line" />
  <path
     transform="matrix(0.09202719,0.20008146,-0.20008146,0.09202719,134.56282,-42.681191)"
     sodipodi:type="arc"
     style="fill:none;stroke:#60aa00;stroke-width:10.57239151;stroke-miterlimit:4;stroke-opacity:1;stroke-dasharray:none"
     id="cs5"
     sodipodi:cx="331.33929"
     sodipodi:cy="379.41574"
     sodipodi:rx="17.410715"
     sodipodi:ry="16.696428"
     d="m 348.75001,379.41574 a 17.410715,16.696428 0 1 1 -34.82143,0 17.410715,16.696428 0 1 1 34.82143,0 z"
     inkscape:export-filename="C:\Users\ca508\drawings.png"
     inkscape:export-xdpi="208.85732"
     inkscape:export-ydpi="208.85732"
     class="group3" />
  <path
     transform="matrix(0.09202719,0.20008146,-0.20008146,0.09202719,50.291888,-19.187711)"
     sodipodi:type="arc"
     style="fill:none;stroke:#60aa00;stroke-width:10.57239151;stroke-miterlimit:4;stroke-opacity:1;stroke-dasharray:none"
     id="cs1"
     sodipodi:cx="331.33929"
     sodipodi:cy="379.41574"
     sodipodi:rx="17.410715"
     sodipodi:ry="16.696428"
     d="m 348.75001,379.41574 a 17.410715,16.696428 0 1 1 -34.82143,0 17.410715,16.696428 0 1 1 34.82143,0 z"
     inkscape:export-filename="C:\Users\ca508\drawings.png"
     inkscape:export-xdpi="208.85732"
     inkscape:export-ydpi="208.85732"
     class="group2" />
  <path
     transform="matrix(0.09202719,0.20008146,-0.20008146,0.09202719,86.034058,-31.883021)"
     sodipodi:type="arc"
     style="fill:none;stroke:#60aa00;stroke-width:10.57239151;stroke-miterlimit:4;stroke-opacity:1;stroke-dasharray:none"
     id="cs3"
     sodipodi:cx="331.33929"
     sodipodi:cy="379.41574"
     sodipodi:rx="17.410715"
     sodipodi:ry="16.696428"
     d="m 348.75001,379.41574 a 17.410715,16.696428 0 1 1 -34.82143,0 17.410715,16.696428 0 1 1 34.82143,0 z"
     inkscape:export-filename="C:\Users\ca508\drawings.png"
     inkscape:export-xdpi="208.85732"
     inkscape:export-ydpi="208.85732"
     class="group1" />
</svg>
